<svg height="1200" style="background: linear-gradient(135deg, #667eea 0%, #764ba2 100%); font-family: &apos;Inter&apos;, &apos;Segoe UI&apos;, sans-serif;" viewBox="0 0 1600 1200" width="1600" xmlns="http://www.w3.org/2000/svg">
<style>

        .timeline-bar { transition: all 0.3s ease; cursor: pointer; }
        .timeline-bar:hover { stroke: #FFFFFF; stroke-width: 3; filter: drop-shadow(0 0 12px rgba(255,255,255,0.8)); }
        .variable-label { fill: #FFFFFF; font-size: 13px; font-weight: 600; text-shadow: 1px 1px 2px rgba(0,0,0,0.5); }
        .memory-label { fill: #E2E8F0; font-size: 11px; text-shadow: 1px 1px 2px rgba(0,0,0,0.5); }
        .section-title { fill: #FFFFFF; font-size: 20px; font-weight: 700; text-shadow: 2px 2px 4px rgba(0,0,0,0.5); }
        .section-bg { fill: rgba(255,255,255,0.1); stroke: rgba(255,255,255,0.2); stroke-width: 1; rx: 12; }
    
</style>
<text fill="#FFFFFF" font-size="32" font-weight="bold" style="text-shadow: 3px 3px 6px rgba(0,0,0,0.5);" text-anchor="middle" x="800" y="40">
Scope Matrix &amp; Lifecycle Visualization
</text>
<rect fill="rgba(252, 211, 77, 0.15)" height="35" rx="8" ry="8" stroke="#FCD34D" stroke-width="2" width="1500" x="50" y="60"/>
<rect fill="rgba(255, 255, 255, 0.2)" height="8" rx="4" width="60" x="70" y="70"/>
<rect fill="#4CAF50" height="8" rx="4" width="40" x="70" y="70"/>
<text fill="#FCD34D" font-size="14" font-weight="bold" text-shadow="1px 1px 2px rgba(0,0,0,0.8)" x="150" y="78">
📊 Progress Bars show: Variable Size / Largest Variable in Same Scope
</text>
<text fill="#E2E8F0" font-size="10" font-style="italic" x="150" y="88">
Example: 2.4KB / 5.6KB
</text>
<line stroke="#7F8C8D" stroke-dasharray="5,3" stroke-width="2" x1="225" x2="675" y1="310" y2="130"/>
<g transform="translate(50, 130)">
<rect fill="rgba(30, 64, 175, 0.1)" height="200" rx="12" stroke="#0A2540" stroke-dasharray="none" stroke-width="3" width="350"/>
<text fill="#f8fafc" font-size="11" font-weight="700" x="15" y="25">
Scope: Global | Memory: 63B | Variables: 2 | Lifetime: 2000ms
</text>
<rect fill="rgba(255, 255, 255, 0.08)" height="45" rx="8" ry="8" stroke="rgba(255, 255, 255, 0.15)" stroke-width="1" width="330" x="10" y="40"/>
<text fill="#FFFFFF" font-size="12" font-weight="bold" text-shadow="1px 1px 2px rgba(0,0,0,0.8)" x="18" y="53">
global_app_config
</text>
<text fill="#00BCD4" font-size="9" font-weight="600" x="18" y="67">
(String)
</text>
<rect fill="rgba(255, 255, 255, 0.1)" height="8" rx="4" ry="4" stroke="rgba(255, 255, 255, 0.2)" stroke-width="1" width="145" x="20" y="60"/>
<rect fill="#00BCD4" height="8" rx="4" ry="4" width="45" x="20" y="60"/>
<text fill="#E2E8F0" font-size="8" font-weight="bold" x="175" y="65">
15B / 48B
</text>
<text fill="#FCD34D" font-size="7" font-weight="500" x="20" y="75">
Active 10ms
</text>
<rect fill="rgba(255, 255, 255, 0.08)" height="45" rx="8" ry="8" stroke="rgba(255, 255, 255, 0.15)" stroke-width="1" width="330" x="10" y="90"/>
<text fill="#FFFFFF" font-size="12" font-weight="bold" text-shadow="1px 1px 2px rgba(0,0,0,0.8)" x="18" y="103">
global_session_store
</text>
<text fill="#00BCD4" font-size="9" font-weight="600" x="18" y="117">
(String)
</text>
<rect fill="rgba(255, 255, 255, 0.1)" height="8" rx="4" ry="4" stroke="rgba(255, 255, 255, 0.2)" stroke-width="1" width="145" x="20" y="110"/>
<rect fill="#00BCD4" height="8" rx="4" ry="4" width="145" x="20" y="110"/>
<text fill="#E2E8F0" font-size="8" font-weight="bold" x="175" y="115">
48B / 48B
</text>
<text fill="#FCD34D" font-size="7" font-weight="500" x="20" y="125">
Active 20ms
</text>
<text fill="#FCD34D" font-size="8" font-style="italic" font-weight="500" x="15" y="185">
Progress Bar: Current Size / Max Size in Scope
</text>
</g>
<g transform="translate(500, 130)">
<rect fill="rgba(30, 64, 175, 0.1)" height="280" rx="12" stroke="#1E40AF" stroke-dasharray="8,4" stroke-width="3" width="350"/>
<text fill="#f8fafc" font-size="11" font-weight="700" x="15" y="25">
Scope: simulate_data_processing_pipeline | Memory: 560B | Variables: 12 | Lifetime: 1ms
</text>
<rect fill="rgba(255, 255, 255, 0.08)" height="45" rx="8" ry="8" stroke="rgba(255, 255, 255, 0.15)" stroke-width="1" width="330" x="10" y="40"/>
<text fill="#FFFFFF" font-size="12" font-weight="bold" text-shadow="1px 1px 2px rgba(0,0,0,0.8)" x="18" y="53">
boxed_hash_map
</text>
<text fill="#00BCD4" font-size="9" font-weight="600" x="18" y="67">
(String)
</text>
<rect fill="rgba(255, 255, 255, 0.1)" height="8" rx="4" ry="4" stroke="rgba(255, 255, 255, 0.2)" stroke-width="1" width="145" x="20" y="60"/>
<rect fill="#00BCD4" height="8" rx="4" ry="4" width="96" x="20" y="60"/>
<text fill="#E2E8F0" font-size="8" font-weight="bold" x="175" y="65">
48B / 72B
</text>
<text fill="#FCD34D" font-size="7" font-weight="500" x="20" y="75">
Active 20ms
</text>
<rect fill="rgba(255, 255, 255, 0.08)" height="45" rx="8" ry="8" stroke="rgba(255, 255, 255, 0.15)" stroke-width="1" width="330" x="10" y="90"/>
<text fill="#FFFFFF" font-size="12" font-weight="bold" text-shadow="1px 1px 2px rgba(0,0,0,0.8)" x="18" y="103">
arc_clone
</text>
<text fill="#00BCD4" font-size="9" font-weight="600" x="18" y="117">
(String)
</text>
<rect fill="rgba(255, 255, 255, 0.1)" height="8" rx="4" ry="4" stroke="rgba(255, 255, 255, 0.2)" stroke-width="1" width="145" x="20" y="110"/>
<rect fill="#00BCD4" height="8" rx="4" ry="4" width="112" x="20" y="110"/>
<text fill="#E2E8F0" font-size="8" font-weight="bold" x="175" y="115">
56B / 72B
</text>
<text fill="#FCD34D" font-size="7" font-weight="500" x="20" y="125">
Active 10ms
</text>
<rect fill="rgba(255, 255, 255, 0.08)" height="45" rx="8" ry="8" stroke="rgba(255, 255, 255, 0.15)" stroke-width="1" width="330" x="10" y="140"/>
<text fill="#FFFFFF" font-size="12" font-weight="bold" text-shadow="1px 1px 2px rgba(0,0,0,0.8)" x="18" y="153">
shared_clone2
</text>
<text fill="#2196F3" font-size="9" font-weight="600" x="18" y="167">
(Vec)
</text>
<rect fill="rgba(255, 255, 255, 0.1)" height="8" rx="4" ry="4" stroke="rgba(255, 255, 255, 0.2)" stroke-width="1" width="145" x="20" y="160"/>
<rect fill="#2196F3" height="8" rx="4" ry="4" width="112" x="20" y="160"/>
<text fill="#E2E8F0" font-size="8" font-weight="bold" x="175" y="165">
56B / 72B
</text>
<text fill="#FCD34D" font-size="7" font-weight="500" x="20" y="175">
Active 20ms
</text>
<rect fill="rgba(255, 255, 255, 0.08)" height="45" rx="8" ry="8" stroke="rgba(255, 255, 255, 0.15)" stroke-width="1" width="330" x="10" y="190"/>
<text fill="#FFFFFF" font-size="12" font-weight="bold" text-shadow="1px 1px 2px rgba(0,0,0,0.8)" x="18" y="203">
boxed_vec_deque
</text>
<text fill="#2196F3" font-size="9" font-weight="600" x="18" y="217">
(Vec)
</text>
<rect fill="rgba(255, 255, 255, 0.1)" height="8" rx="4" ry="4" stroke="rgba(255, 255, 255, 0.2)" stroke-width="1" width="145" x="20" y="210"/>
<rect fill="#2196F3" height="8" rx="4" ry="4" width="64" x="20" y="210"/>
<text fill="#E2E8F0" font-size="8" font-weight="bold" x="175" y="215">
32B / 72B
</text>
<text fill="#FCD34D" font-size="7" font-weight="500" x="20" y="225">
Active 20ms
</text>
<text fill="#94A3B8" font-size="9" font-style="italic" font-weight="500" x="20" y="255">
+ 8 more variables
</text>
<text fill="#FCD34D" font-size="8" font-style="italic" font-weight="500" x="15" y="265">
Progress Bar: Current Size / Max Size in Scope
</text>
</g>
<rect class="section-bg" height="1500" width="1500" x="50" y="530"/>
<text class="section-title" x="70" y="560">
Top 3 Memory Analysis
</text>
<rect fill="#2ecc71" height="25" rx="4" width="400" x="100" y="600"/>
<text fill="#FFFFFF" font-size="12" font-weight="bold" text-shadow="1px 1px 2px rgba(0,0,0,0.8)" x="110" y="617">
String (10 vars)
</text>
<text fill="#FFFFFF" font-size="11" font-weight="600" text-shadow="1px 1px 2px rgba(0,0,0,0.6)" x="515" y="617">
global_app_config(15B) | boxed_hash_map(48B) | arc_clone(56B) | global_sessio...
</text>
<rect fill="#3498db" height="25" rx="4" width="167" x="100" y="640"/>
<text fill="#FFFFFF" font-size="12" font-weight="bold" text-shadow="1px 1px 2px rgba(0,0,0,0.8)" x="110" y="657">
Vec (4 vars)
</text>
<text fill="#FFFFFF" font-size="11" font-weight="600" text-shadow="1px 1px 2px rgba(0,0,0,0.6)" x="282" y="657">
shared_clone2(56B) | boxed_vec_deque(32B) | boxed_large_data(24B) | mutable_d...
</text>
<rect class="section-bg" height="1500" width="1500" x="50" y="880"/>
<text class="section-title" x="70" y="910">
Variable Relationships - Ownership &amp; Borrowing
</text>
<rect fill="rgba(52, 73, 94, 0.2)" height="150" opacity="0.3" rx="8" stroke="#34495E" stroke-dasharray="none" stroke-width="2" width="300" x="80" y="930"/>
<text fill="#FFFFFF" font-size="12" font-weight="bold" x="90" y="945">
Scope: Global
</text>
<rect fill="rgba(52, 152, 219, 0.2)" height="150" opacity="0.3" rx="8" stroke="#3498DB" stroke-dasharray="5,3" stroke-width="2" width="300" x="480" y="930"/>
<text fill="#FFFFFF" font-size="12" font-weight="bold" x="490" y="945">
Scope: simulate_data_processing_pipeline
</text>
<line marker-end="url(#arrowhead)" stroke="#F39C12" stroke-dasharray="4,2" stroke-width="1" x1="200" x2="400" y1="100" y2="150"/>
<text fill="#F39C12" font-size="8" font-weight="bold" text-anchor="middle" x="300" y="120">
indirect_ref
</text>
<line marker-end="url(#arrowhead)" stroke="#95A5A6" stroke-dasharray="none" stroke-width="2" x1="200" x2="400" y1="100" y2="150"/>
<text fill="#95A5A6" font-size="8" font-weight="bold" text-anchor="middle" x="300" y="120">
cloned
</text>
<line marker-end="url(#arrowhead)" stroke="#95A5A6" stroke-dasharray="none" stroke-width="2" x1="200" x2="400" y1="100" y2="150"/>
<text fill="#95A5A6" font-size="8" font-weight="bold" text-anchor="middle" x="300" y="120">
cloned
</text>
<line marker-end="url(#arrowhead)" stroke="#F39C12" stroke-dasharray="4,2" stroke-width="1" x1="200" x2="400" y1="100" y2="150"/>
<text fill="#F39C12" font-size="8" font-weight="bold" text-anchor="middle" x="300" y="120">
indirect_ref
</text>
<line marker-end="url(#arrowhead)" stroke="#F39C12" stroke-dasharray="4,2" stroke-width="1" x1="200" x2="400" y1="100" y2="150"/>
<text fill="#F39C12" font-size="8" font-weight="bold" text-anchor="middle" x="300" y="120">
indirect_ref
</text>
<line marker-end="url(#arrowhead)" stroke="#F39C12" stroke-dasharray="4,2" stroke-width="1" x1="200" x2="400" y1="100" y2="150"/>
<text fill="#F39C12" font-size="8" font-weight="bold" text-anchor="middle" x="300" y="120">
indirect_ref
</text>
<line marker-end="url(#arrowhead)" stroke="#F39C12" stroke-dasharray="4,2" stroke-width="1" x1="200" x2="400" y1="100" y2="150"/>
<text fill="#F39C12" font-size="8" font-weight="bold" text-anchor="middle" x="300" y="120">
indirect_ref
</text>
<line marker-end="url(#arrowhead)" stroke="#F39C12" stroke-dasharray="4,2" stroke-width="1" x1="200" x2="400" y1="100" y2="150"/>
<text fill="#F39C12" font-size="8" font-weight="bold" text-anchor="middle" x="300" y="120">
indirect_ref
</text>
<line marker-end="url(#arrowhead)" stroke="#F39C12" stroke-dasharray="4,2" stroke-width="1" x1="200" x2="400" y1="100" y2="150"/>
<text fill="#F39C12" font-size="8" font-weight="bold" text-anchor="middle" x="300" y="120">
indirect_ref
</text>
<line marker-end="url(#arrowhead)" stroke="#F39C12" stroke-dasharray="4,2" stroke-width="1" x1="200" x2="400" y1="100" y2="150"/>
<text fill="#F39C12" font-size="8" font-weight="bold" text-anchor="middle" x="300" y="120">
indirect_ref
</text>
<line marker-end="url(#arrowhead)" stroke="#95A5A6" stroke-dasharray="none" stroke-width="2" x1="200" x2="400" y1="100" y2="150"/>
<text fill="#95A5A6" font-size="8" font-weight="bold" text-anchor="middle" x="300" y="120">
cloned
</text>
<line marker-end="url(#arrowhead)" stroke="#95A5A6" stroke-dasharray="none" stroke-width="2" x1="200" x2="400" y1="100" y2="150"/>
<text fill="#95A5A6" font-size="8" font-weight="bold" text-anchor="middle" x="300" y="120">
cloned
</text>
<line marker-end="url(#arrowhead)" stroke="#F39C12" stroke-dasharray="4,2" stroke-width="1" x1="200" x2="400" y1="100" y2="150"/>
<text fill="#F39C12" font-size="8" font-weight="bold" text-anchor="middle" x="300" y="120">
indirect_ref
</text>
<line marker-end="url(#arrowhead)" stroke="#F39C12" stroke-dasharray="4,2" stroke-width="1" x1="200" x2="400" y1="100" y2="150"/>
<text fill="#F39C12" font-size="8" font-weight="bold" text-anchor="middle" x="300" y="120">
indirect_ref
</text>
<line marker-end="url(#arrowhead)" stroke="#F39C12" stroke-dasharray="4,2" stroke-width="1" x1="200" x2="400" y1="100" y2="150"/>
<text fill="#F39C12" font-size="8" font-weight="bold" text-anchor="middle" x="300" y="120">
indirect_ref
</text>
<line marker-end="url(#arrowhead)" stroke="#F39C12" stroke-dasharray="4,2" stroke-width="1" x1="200" x2="400" y1="100" y2="150"/>
<text fill="#F39C12" font-size="8" font-weight="bold" text-anchor="middle" x="300" y="120">
indirect_ref
</text>
<line marker-end="url(#arrowhead)" stroke="#F39C12" stroke-dasharray="4,2" stroke-width="1" x1="200" x2="400" y1="100" y2="150"/>
<text fill="#F39C12" font-size="8" font-weight="bold" text-anchor="middle" x="300" y="120">
indirect_ref
</text>
<line marker-end="url(#arrowhead)" stroke="#F39C12" stroke-dasharray="4,2" stroke-width="1" x1="200" x2="400" y1="100" y2="150"/>
<text fill="#F39C12" font-size="8" font-weight="bold" text-anchor="middle" x="300" y="120">
indirect_ref
</text>
<line marker-end="url(#arrowhead)" stroke="#F39C12" stroke-dasharray="4,2" stroke-width="1" x1="200" x2="400" y1="100" y2="150"/>
<text fill="#F39C12" font-size="8" font-weight="bold" text-anchor="middle" x="300" y="120">
indirect_ref
</text>
<line marker-end="url(#arrowhead)" stroke="#95A5A6" stroke-dasharray="none" stroke-width="2" x1="200" x2="400" y1="100" y2="150"/>
<text fill="#95A5A6" font-size="8" font-weight="bold" text-anchor="middle" x="300" y="120">
cloned
</text>
<line marker-end="url(#arrowhead)" stroke="#95A5A6" stroke-dasharray="none" stroke-width="2" x1="200" x2="400" y1="100" y2="150"/>
<text fill="#95A5A6" font-size="8" font-weight="bold" text-anchor="middle" x="300" y="120">
cloned
</text>
<line marker-end="url(#arrowhead)" stroke="#95A5A6" stroke-dasharray="none" stroke-width="2" x1="200" x2="400" y1="100" y2="150"/>
<text fill="#95A5A6" font-size="8" font-weight="bold" text-anchor="middle" x="300" y="120">
cloned
</text>
<line marker-end="url(#arrowhead)" stroke="#95A5A6" stroke-dasharray="none" stroke-width="2" x1="200" x2="400" y1="100" y2="150"/>
<text fill="#95A5A6" font-size="8" font-weight="bold" text-anchor="middle" x="300" y="120">
cloned
</text>
<line marker-end="url(#arrowhead)" stroke="#95A5A6" stroke-dasharray="none" stroke-width="2" x1="200" x2="400" y1="100" y2="150"/>
<text fill="#95A5A6" font-size="8" font-weight="bold" text-anchor="middle" x="300" y="120">
cloned
</text>
<line marker-end="url(#arrowhead)" stroke="#95A5A6" stroke-dasharray="none" stroke-width="2" x1="200" x2="400" y1="100" y2="150"/>
<text fill="#95A5A6" font-size="8" font-weight="bold" text-anchor="middle" x="300" y="120">
cloned
</text>
<line marker-end="url(#arrowhead)" stroke="#95A5A6" stroke-dasharray="none" stroke-width="2" x1="200" x2="400" y1="100" y2="150"/>
<text fill="#95A5A6" font-size="8" font-weight="bold" text-anchor="middle" x="300" y="120">
cloned
</text>
<line marker-end="url(#arrowhead)" stroke="#95A5A6" stroke-dasharray="none" stroke-width="2" x1="200" x2="400" y1="100" y2="150"/>
<text fill="#95A5A6" font-size="8" font-weight="bold" text-anchor="middle" x="300" y="120">
cloned
</text>
<line marker-end="url(#arrowhead)" stroke="#95A5A6" stroke-dasharray="none" stroke-width="2" x1="200" x2="400" y1="100" y2="150"/>
<text fill="#95A5A6" font-size="8" font-weight="bold" text-anchor="middle" x="300" y="120">
cloned
</text>
<line marker-end="url(#arrowhead)" stroke="#95A5A6" stroke-dasharray="none" stroke-width="2" x1="200" x2="400" y1="100" y2="150"/>
<text fill="#95A5A6" font-size="8" font-weight="bold" text-anchor="middle" x="300" y="120">
cloned
</text>
<line marker-end="url(#arrowhead)" stroke="#95A5A6" stroke-dasharray="none" stroke-width="2" x1="200" x2="400" y1="100" y2="150"/>
<text fill="#95A5A6" font-size="8" font-weight="bold" text-anchor="middle" x="300" y="120">
cloned
</text>
<line marker-end="url(#arrowhead)" stroke="#95A5A6" stroke-dasharray="none" stroke-width="2" x1="200" x2="400" y1="100" y2="150"/>
<text fill="#95A5A6" font-size="8" font-weight="bold" text-anchor="middle" x="300" y="120">
cloned
</text>
<line marker-end="url(#arrowhead)" stroke="#95A5A6" stroke-dasharray="none" stroke-width="2" x1="200" x2="400" y1="100" y2="150"/>
<text fill="#95A5A6" font-size="8" font-weight="bold" text-anchor="middle" x="300" y="120">
cloned
</text>
<line marker-end="url(#arrowhead)" stroke="#95A5A6" stroke-dasharray="none" stroke-width="2" x1="200" x2="400" y1="100" y2="150"/>
<text fill="#95A5A6" font-size="8" font-weight="bold" text-anchor="middle" x="300" y="120">
cloned
</text>
<line marker-end="url(#arrowhead)" stroke="#95A5A6" stroke-dasharray="none" stroke-width="2" x1="200" x2="400" y1="100" y2="150"/>
<text fill="#95A5A6" font-size="8" font-weight="bold" text-anchor="middle" x="300" y="120">
cloned
</text>
<line marker-end="url(#arrowhead)" stroke="#95A5A6" stroke-dasharray="none" stroke-width="2" x1="200" x2="400" y1="100" y2="150"/>
<text fill="#95A5A6" font-size="8" font-weight="bold" text-anchor="middle" x="300" y="120">
cloned
</text>
<line marker-end="url(#arrowhead)" stroke="#95A5A6" stroke-dasharray="none" stroke-width="2" x1="200" x2="400" y1="100" y2="150"/>
<text fill="#95A5A6" font-size="8" font-weight="bold" text-anchor="middle" x="300" y="120">
cloned
</text>
<line marker-end="url(#arrowhead)" stroke="#95A5A6" stroke-dasharray="none" stroke-width="2" x1="200" x2="400" y1="100" y2="150"/>
<text fill="#95A5A6" font-size="8" font-weight="bold" text-anchor="middle" x="300" y="120">
cloned
</text>
<line marker-end="url(#arrowhead)" stroke="#95A5A6" stroke-dasharray="none" stroke-width="2" x1="200" x2="400" y1="100" y2="150"/>
<text fill="#95A5A6" font-size="8" font-weight="bold" text-anchor="middle" x="300" y="120">
cloned
</text>
<line marker-end="url(#arrowhead)" stroke="#95A5A6" stroke-dasharray="none" stroke-width="2" x1="200" x2="400" y1="100" y2="150"/>
<text fill="#95A5A6" font-size="8" font-weight="bold" text-anchor="middle" x="300" y="120">
cloned
</text>
<line marker-end="url(#arrowhead)" stroke="#95A5A6" stroke-dasharray="none" stroke-width="2" x1="200" x2="400" y1="100" y2="150"/>
<text fill="#95A5A6" font-size="8" font-weight="bold" text-anchor="middle" x="300" y="120">
cloned
</text>
<line marker-end="url(#arrowhead)" stroke="#F39C12" stroke-dasharray="4,2" stroke-width="1" x1="200" x2="400" y1="100" y2="150"/>
<text fill="#F39C12" font-size="8" font-weight="bold" text-anchor="middle" x="300" y="120">
indirect_ref
</text>
<line marker-end="url(#arrowhead)" stroke="#F39C12" stroke-dasharray="4,2" stroke-width="1" x1="200" x2="400" y1="100" y2="150"/>
<text fill="#F39C12" font-size="8" font-weight="bold" text-anchor="middle" x="300" y="120">
indirect_ref
</text>
<line marker-end="url(#arrowhead)" stroke="#F39C12" stroke-dasharray="4,2" stroke-width="1" x1="200" x2="400" y1="100" y2="150"/>
<text fill="#F39C12" font-size="8" font-weight="bold" text-anchor="middle" x="300" y="120">
indirect_ref
</text>
<line marker-end="url(#arrowhead)" stroke="#F39C12" stroke-dasharray="4,2" stroke-width="1" x1="200" x2="400" y1="100" y2="150"/>
<text fill="#F39C12" font-size="8" font-weight="bold" text-anchor="middle" x="300" y="120">
indirect_ref
</text>
<line marker-end="url(#arrowhead)" stroke="#F39C12" stroke-dasharray="4,2" stroke-width="1" x1="200" x2="400" y1="100" y2="150"/>
<text fill="#F39C12" font-size="8" font-weight="bold" text-anchor="middle" x="300" y="120">
indirect_ref
</text>
<line marker-end="url(#arrowhead)" stroke="#F39C12" stroke-dasharray="4,2" stroke-width="1" x1="200" x2="400" y1="100" y2="150"/>
<text fill="#F39C12" font-size="8" font-weight="bold" text-anchor="middle" x="300" y="120">
indirect_ref
</text>
<line marker-end="url(#arrowhead)" stroke="#F39C12" stroke-dasharray="4,2" stroke-width="1" x1="200" x2="400" y1="100" y2="150"/>
<text fill="#F39C12" font-size="8" font-weight="bold" text-anchor="middle" x="300" y="120">
indirect_ref
</text>
<line marker-end="url(#arrowhead)" stroke="#F39C12" stroke-dasharray="4,2" stroke-width="1" x1="200" x2="400" y1="100" y2="150"/>
<text fill="#F39C12" font-size="8" font-weight="bold" text-anchor="middle" x="300" y="120">
indirect_ref
</text>
<line marker-end="url(#arrowhead)" stroke="#F39C12" stroke-dasharray="4,2" stroke-width="1" x1="200" x2="400" y1="100" y2="150"/>
<text fill="#F39C12" font-size="8" font-weight="bold" text-anchor="middle" x="300" y="120">
indirect_ref
</text>
<line marker-end="url(#arrowhead)" stroke="#F39C12" stroke-dasharray="4,2" stroke-width="1" x1="200" x2="400" y1="100" y2="150"/>
<text fill="#F39C12" font-size="8" font-weight="bold" text-anchor="middle" x="300" y="120">
indirect_ref
</text>
<line marker-end="url(#arrowhead)" stroke="#9B59B6" stroke-dasharray="8,4" stroke-width="3" x1="200" x2="400" y1="100" y2="150"/>
<text fill="#9B59B6" font-size="8" font-weight="bold" text-anchor="middle" x="300" y="120">
shared
</text>
<line marker-end="url(#arrowhead)" stroke="#F39C12" stroke-dasharray="4,2" stroke-width="1" x1="200" x2="400" y1="100" y2="150"/>
<text fill="#F39C12" font-size="8" font-weight="bold" text-anchor="middle" x="300" y="120">
indirect_ref
</text>
<line marker-end="url(#arrowhead)" stroke="#F39C12" stroke-dasharray="4,2" stroke-width="1" x1="200" x2="400" y1="100" y2="150"/>
<text fill="#F39C12" font-size="8" font-weight="bold" text-anchor="middle" x="300" y="120">
indirect_ref
</text>
<line marker-end="url(#arrowhead)" stroke="#9B59B6" stroke-dasharray="8,4" stroke-width="3" x1="200" x2="400" y1="100" y2="150"/>
<text fill="#9B59B6" font-size="8" font-weight="bold" text-anchor="middle" x="300" y="120">
shared
</text>
<line marker-end="url(#arrowhead)" stroke="#F39C12" stroke-dasharray="4,2" stroke-width="1" x1="200" x2="400" y1="100" y2="150"/>
<text fill="#F39C12" font-size="8" font-weight="bold" text-anchor="middle" x="300" y="120">
indirect_ref
</text>
<line marker-end="url(#arrowhead)" stroke="#F39C12" stroke-dasharray="4,2" stroke-width="1" x1="200" x2="400" y1="100" y2="150"/>
<text fill="#F39C12" font-size="8" font-weight="bold" text-anchor="middle" x="300" y="120">
indirect_ref
</text>
<line marker-end="url(#arrowhead)" stroke="#F39C12" stroke-dasharray="4,2" stroke-width="1" x1="200" x2="400" y1="100" y2="150"/>
<text fill="#F39C12" font-size="8" font-weight="bold" text-anchor="middle" x="300" y="120">
indirect_ref
</text>
<line marker-end="url(#arrowhead)" stroke="#F39C12" stroke-dasharray="4,2" stroke-width="1" x1="200" x2="400" y1="100" y2="150"/>
<text fill="#F39C12" font-size="8" font-weight="bold" text-anchor="middle" x="300" y="120">
indirect_ref
</text>
<line marker-end="url(#arrowhead)" stroke="#F39C12" stroke-dasharray="4,2" stroke-width="1" x1="200" x2="400" y1="100" y2="150"/>
<text fill="#F39C12" font-size="8" font-weight="bold" text-anchor="middle" x="300" y="120">
indirect_ref
</text>
<line marker-end="url(#arrowhead)" stroke="#F39C12" stroke-dasharray="4,2" stroke-width="1" x1="200" x2="400" y1="100" y2="150"/>
<text fill="#F39C12" font-size="8" font-weight="bold" text-anchor="middle" x="300" y="120">
indirect_ref
</text>
<line marker-end="url(#arrowhead)" stroke="#F39C12" stroke-dasharray="4,2" stroke-width="1" x1="200" x2="400" y1="100" y2="150"/>
<text fill="#F39C12" font-size="8" font-weight="bold" text-anchor="middle" x="300" y="120">
indirect_ref
</text>
<line marker-end="url(#arrowhead)" stroke="#9B59B6" stroke-dasharray="8,4" stroke-width="3" x1="200" x2="400" y1="100" y2="150"/>
<text fill="#9B59B6" font-size="8" font-weight="bold" text-anchor="middle" x="300" y="120">
shared
</text>
<line marker-end="url(#arrowhead)" stroke="#F39C12" stroke-dasharray="4,2" stroke-width="1" x1="200" x2="400" y1="100" y2="150"/>
<text fill="#F39C12" font-size="8" font-weight="bold" text-anchor="middle" x="300" y="120">
indirect_ref
</text>
<line marker-end="url(#arrowhead)" stroke="#F39C12" stroke-dasharray="4,2" stroke-width="1" x1="200" x2="400" y1="100" y2="150"/>
<text fill="#F39C12" font-size="8" font-weight="bold" text-anchor="middle" x="300" y="120">
indirect_ref
</text>
<line marker-end="url(#arrowhead)" stroke="#F39C12" stroke-dasharray="4,2" stroke-width="1" x1="200" x2="400" y1="100" y2="150"/>
<text fill="#F39C12" font-size="8" font-weight="bold" text-anchor="middle" x="300" y="120">
indirect_ref
</text>
<line marker-end="url(#arrowhead)" stroke="#F39C12" stroke-dasharray="4,2" stroke-width="1" x1="200" x2="400" y1="100" y2="150"/>
<text fill="#F39C12" font-size="8" font-weight="bold" text-anchor="middle" x="300" y="120">
indirect_ref
</text>
<circle cx="140" cy="980" fill="#2ecc71" r="20" stroke="#FFFFFF" stroke-width="2" title="global_app_config: String (15B)"/>
<text fill="#FFFFFF" font-size="9" font-weight="bold" text-anchor="middle" x="140" y="983">
global...
</text>
<text fill="#E2E8F0" font-size="7" text-anchor="middle" x="140" y="1015">
String | 15B
</text>
<circle cx="260" cy="980" fill="#2ecc71" r="20" stroke="#FFFFFF" stroke-width="2" title="global_session_store: String (48B)"/>
<text fill="#FFFFFF" font-size="9" font-weight="bold" text-anchor="middle" x="260" y="983">
global...
</text>
<text fill="#E2E8F0" font-size="7" text-anchor="middle" x="260" y="1015">
String | 48B
</text>
<circle cx="540" cy="980" fill="#2ecc71" r="20" stroke="#FFFFFF" stroke-width="2" title="boxed_hash_map: String (48B)"/>
<text fill="#FFFFFF" font-size="9" font-weight="bold" text-anchor="middle" x="540" y="983">
boxed_...
</text>
<text fill="#E2E8F0" font-size="7" text-anchor="middle" x="540" y="1015">
String | 48B
</text>
<circle cx="660" cy="980" fill="#2ecc71" r="20" stroke="#FFFFFF" stroke-width="2" title="arc_clone: String (56B)"/>
<text fill="#FFFFFF" font-size="9" font-weight="bold" text-anchor="middle" x="660" y="983">
arc_cl...
</text>
<text fill="#E2E8F0" font-size="7" text-anchor="middle" x="660" y="1015">
String | 56B
</text>
<circle cx="540" cy="1040" fill="#3498db" r="20" stroke="#FFFFFF" stroke-width="2" title="shared_clone2: Vec (56B)"/>
<text fill="#FFFFFF" font-size="9" font-weight="bold" text-anchor="middle" x="540" y="1043">
shared...
</text>
<text fill="#E2E8F0" font-size="7" text-anchor="middle" x="540" y="1075">
Vec | 56B
</text>
<circle cx="660" cy="1040" fill="#3498db" r="20" stroke="#FFFFFF" stroke-width="2" title="boxed_vec_deque: Vec (32B)"/>
<text fill="#FFFFFF" font-size="9" font-weight="bold" text-anchor="middle" x="660" y="1043">
boxed_...
</text>
<text fill="#E2E8F0" font-size="7" text-anchor="middle" x="660" y="1075">
Vec | 32B
</text>
<line stroke="#E74C3C" stroke-dasharray="solid" stroke-width="4" x1="100" x2="130" y1="2300" y2="2300"/>
<text fill="#FFFFFF" font-size="10" x="135" y="2304">
Ownership Transfer
</text>
<line stroke="#3498DB" stroke-dasharray="solid" stroke-width="3" x1="300" x2="330" y1="2300" y2="2300"/>
<text fill="#FFFFFF" font-size="10" x="335" y="2304">
Mutable Borrow
</text>
<line stroke="#27AE60" stroke-dasharray="solid" stroke-width="2" x1="500" x2="530" y1="2300" y2="2300"/>
<text fill="#FFFFFF" font-size="10" x="535" y="2304">
Immutable Borrow
</text>
<line stroke="#95A5A6" stroke-dasharray="solid" stroke-width="2" x1="100" x2="130" y1="2325" y2="2325"/>
<text fill="#FFFFFF" font-size="10" x="135" y="2329">
Clone
</text>
<line stroke="#9B59B6" stroke-dasharray="8,4" stroke-width="3" x1="300" x2="330" y1="2325" y2="2325"/>
<text fill="#FFFFFF" font-size="10" x="335" y="2329">
Shared Pointer
</text>
<line stroke="#F39C12" stroke-dasharray="4,2" stroke-width="1" x1="500" x2="530" y1="2325" y2="2325"/>
<text fill="#FFFFFF" font-size="10" x="535" y="2329">
Indirect Reference
</text>
</svg>